<?xml version="1.0" encoding="UTF-8"?>
<!-- Generator: Adobe Illustrator 18.1.1, SVG Export Plug-In . SVG Version: 6.00 Build 0)  -->
<!DOCTYPE svg PUBLIC "-//W3C//DTD SVG 1.1//EN" "http://www.w3.org/Graphics/SVG/1.1/DTD/svg11.dtd">
<svg version="1.1" id="Layer_1" xmlns="http://www.w3.org/2000/svg" xmlns:xlink="http://www.w3.org/1999/xlink" x="0px" y="0px" width="27.21875px" height="21.0625px" viewBox="-287.75 385.8854065 27.21875 21.0625" enable-background="new -287.75 385.8854065 27.21875 21.0625" xml:space="preserve">
<path fill="#666E6E" d="M-262.5416565,389.7336731h-11.625c-0.442627-1.617981-1.9106445-2.8170166-3.6671143-2.8170166  c-1.7564087,0-3.2244263,1.1990356-3.6670532,2.8170166h-4.234314c-0.5522461,0-1,0.4472656-1,1s0.4477539,1,1,1h4.234436  c0.442749,1.6177979,1.9106445,2.8165894,3.6669312,2.8165894c1.7563477,0,3.2242432-1.1987915,3.6669922-2.8165894h11.6251221  c0.5522461,0,1-0.4472656,1-1S-261.9894104,389.7336731-262.5416565,389.7336731z M-277.8337708,392.5502625  c-1.0033569,0-1.8167725-0.8134155-1.8167725-1.8167725c0-1.003418,0.8134155-1.8168335,1.8167725-1.8168335  c1.003418,0,1.8168335,0.8134155,1.8168335,1.8168335C-276.0169373,391.7368469-276.8303528,392.5502625-277.8337708,392.5502625z"/>
<path fill="#666E6E" d="M-286.7351379,402.1086731c0,0.5527344,0.4477539,1,1,1h11.6251221  c0.442749,1.6177979,1.9106445,2.8165894,3.6669922,2.8165894c1.7562866,0,3.2241821-1.1987915,3.6669312-2.8165894h4.234436  c0.5522461,0,1-0.4472656,1-1s-0.4477539-1-1-1h-4.234314c-0.442627-1.617981-1.9106445-2.8170166-3.6670532-2.8170166  c-1.7564697,0-3.2244873,1.1990356-3.6671143,2.8170166h-11.625  C-286.287384,401.1086731-286.7351379,401.5559387-286.7351379,402.1086731z M-272.2598572,402.10849  c0-1.003418,0.8134155-1.8168335,1.8168335-1.8168335c1.0033569,0,1.8167725,0.8134155,1.8167725,1.8168335  c0,1.0033569-0.8134155,1.8167725-1.8167725,1.8167725C-271.4464417,403.9252625-272.2598572,403.1118469-272.2598572,402.10849z"/>
</svg>